<?xml version="1.0" encoding="utf-8"?>
<!-- Generator: Adobe Illustrator 15.0.0, SVG Export Plug-In  -->
<!DOCTYPE svg PUBLIC "-//W3C//DTD SVG 1.1//EN" "http://www.w3.org/Graphics/SVG/1.1/DTD/svg11.dtd" [
	<!ENTITY ns_flows "http://ns.adobe.com/Flows/1.0/">
]>
<svg version="1.1"
	 xmlns="http://www.w3.org/2000/svg" xmlns:xlink="http://www.w3.org/1999/xlink" xmlns:a="http://ns.adobe.com/AdobeSVGViewerExtensions/3.0/"
	 x="0px" y="0px" width="250px" height="81px" viewBox="0 0 250 81" overflow="visible" enable-background="new 0 0 250 81"
	 xml:space="preserve">
<defs>
</defs>
<g>
	<defs>
		<path id="SVGID_1_" d="M73.698,1.429l-21.025,53.15L44.169,9.388c-0.996-5.046-4.939-7.959-9.316-7.959H0.477L0,3.692
			c7.055,1.536,15.073,4.009,19.93,6.646c2.973,1.614,3.822,3.022,4.8,6.86L40.835,79.52h21.354L94.917,1.429H73.698z
			 M103.589,1.429L86.878,79.52h20.201l16.705-78.091H103.589z M219.411,22.527l6.12,29.322h-16.756L219.411,22.527z M216.452,1.429
			c-3.882,0-7.15,2.253-8.602,5.727L177.538,79.52h21.211l4.213-11.668h25.914l2.44,11.668H250L233.691,1.429H216.452z
			 M129.289,25.811c-0.134,11.249,10.03,17.516,17.688,21.255c7.865,3.828,10.505,6.281,10.476,9.702
			c-0.06,5.243-6.277,7.554-12.093,7.644c-10.153,0.158-16.05-2.745-20.747-4.933l-3.656,17.112
			c4.716,2.167,13.43,4.054,22.463,4.146c21.224,0,35.104-10.479,35.171-26.719c0.089-20.606-28.498-21.744-28.303-30.953
			c0.065-2.799,2.729-5.776,8.568-6.539c2.892-0.377,10.875-0.669,19.915,3.491l3.551-16.557C177.457,1.697,171.206,0,163.42,0
			C143.455,0,129.4,10.615,129.289,25.811"/>
	</defs>
	<clipPath id="SVGID_2_">
		<use xlink:href="#SVGID_1_"  overflow="visible"/>
	</clipPath>
	<rect clip-path="url(#SVGID_2_)" fill="#FFFFFF" width="250" height="80.738"/>
</g>
</svg>
