<?xml version="1.0" encoding="utf-8"?>
<!-- Generator: Adobe Illustrator 15.0.0, SVG Export Plug-In  -->
<!DOCTYPE svg PUBLIC "-//W3C//DTD SVG 1.1//EN" "http://www.w3.org/Graphics/SVG/1.1/DTD/svg11.dtd" [
	<!ENTITY ns_flows "http://ns.adobe.com/Flows/1.0/">
]>
<svg version="1.1"
	 xmlns="http://www.w3.org/2000/svg" xmlns:xlink="http://www.w3.org/1999/xlink" xmlns:a="http://ns.adobe.com/AdobeSVGViewerExtensions/3.0/"
	 x="0px" y="0px" width="202px" height="46px" viewBox="610.655 724.847 202 46" enable-background="new 610.655 724.847 202 46"
	 xml:space="preserve">
<defs>
</defs>
<rect display="none" fill="#005AA9" width="1300" height="850.001"/>
<rect x="613.042" y="733.029" fill="#FFFFFF" width="27.353" height="4.991"/>
<path fill="#FFFFFF" d="M613.042,727.802v3.58h27.353v-3.58c0-0.305-0.229-0.546-0.507-0.546h-26.339
	C613.269,727.256,613.042,727.499,613.042,727.802"/>
<rect x="613.042" y="739.664" fill="#FFFFFF" width="27.353" height="6.041"/>
<path fill="#FFFFFF" d="M613.042,747.35v6.579c0,0.3,0.228,0.548,0.507,0.548h26.339c0.278,0,0.507-0.248,0.507-0.548v-6.579
	H613.042z"/>
<polygon fill="#FFFFFF" points="658.815,754.243 657.141,754.243 657.101,754.19 650.123,744.566 650.123,754.243 648.31,754.243 
	648.31,741.511 650.097,741.511 650.136,741.563 657.024,750.987 657.024,741.511 658.815,741.511 "/>
<path fill="#FFFFFF" d="M669.905,754.469c-3.661,0-6.317-2.768-6.317-6.582c0-3.813,2.656-6.583,6.317-6.583
	c3.664,0,6.32,2.77,6.32,6.583C676.225,751.701,673.569,754.469,669.905,754.469 M669.905,742.948c-2.662,0-4.45,1.986-4.45,4.938
	c0,2.905,1.833,4.938,4.45,4.938c2.621,0,4.452-2.032,4.452-4.938C674.357,744.979,672.526,742.948,669.905,742.948"/>
<path fill="#FFFFFF" d="M700.241,754.469c-3.661,0-6.32-2.768-6.32-6.582c0-3.813,2.659-6.583,6.32-6.583
	c3.663,0,6.32,2.77,6.32,6.583C706.561,751.701,703.904,754.469,700.241,754.469 M700.241,742.948c-2.663,0-4.448,1.986-4.448,4.938
	c0,2.905,1.826,4.938,4.448,4.938c2.62,0,4.45-2.032,4.45-4.938C704.691,744.979,702.861,742.948,700.241,742.948"/>
<polygon fill="#FFFFFF" points="686.13,754.243 684.032,754.243 683.998,754.162 678.913,741.511 680.975,741.511 681.005,741.594 
	685.089,752.052 689.209,741.511 691.267,741.511 "/>
<path fill="#FFFFFF" d="M713.553,754.243h-1.815v-12.732h5.145c2.377,0,4.038,1.598,4.038,3.891c0,2.29-1.661,3.889-4.038,3.889
	h-3.329V754.243z M713.553,747.645h3.142c1.411,0,2.358-0.9,2.358-2.243s-0.948-2.246-2.358-2.246h-3.142V747.645z"/>
<path fill="#FFFFFF" d="M735.643,754.243h-2.058l-1.104-2.767h-6.031l-1.1,2.767h-2.06l5.113-12.732h2.104L735.643,754.243z
	 M727.004,749.833h4.908l-2.444-6.229L727.004,749.833z"/>
<polygon fill="#FFFFFF" points="743.827,754.243 742.016,754.243 742.016,748.881 736.979,741.511 739.111,741.511 742.914,747.205 
	746.711,741.511 748.844,741.511 743.827,748.881 "/>
<polygon fill="#FFFFFF" points="764.811,754.243 762.997,754.243 762.997,744.507 758.968,754.243 758.16,754.243 758.125,754.162 
	754.15,744.509 754.15,754.243 752.337,754.243 752.337,741.511 754.78,741.511 754.813,741.594 758.563,750.688 762.368,741.511 
	764.811,741.511 "/>
<polygon fill="#FFFFFF" points="779.265,754.243 770.83,754.243 770.83,741.511 779.265,741.511 779.265,743.155 772.646,743.155 
	772.646,746.914 779.133,746.914 779.133,748.559 772.646,748.559 772.646,752.6 779.265,752.6 "/>
<polygon fill="#FFFFFF" points="795.422,754.243 793.728,754.243 793.689,754.19 786.655,744.566 786.655,754.243 784.84,754.243 
	784.84,741.511 786.624,741.511 786.665,741.563 793.607,750.987 793.607,741.511 795.422,741.511 "/>
<polygon fill="#FFFFFF" points="805.97,754.243 804.156,754.243 804.156,743.155 800.212,743.155 800.212,741.511 809.935,741.511 
	809.935,743.155 805.97,743.155 "/>
<path fill="#FFFFFF" d="M647.928,728.48h2.959c0.458,0,0.852,0.094,1.182,0.283c0.33,0.188,0.582,0.444,0.758,0.768
	c0.175,0.323,0.263,0.677,0.263,1.06c0,0.385-0.088,0.737-0.263,1.061c-0.176,0.323-0.429,0.579-0.763,0.77
	c-0.333,0.188-0.726,0.281-1.177,0.281h-1.777v2.516h-1.182V728.48z M651.554,729.747c-0.216-0.211-0.492-0.317-0.828-0.317h-1.616
	v2.323h1.616c0.336,0,0.612-0.105,0.828-0.316c0.215-0.214,0.323-0.494,0.323-0.846C651.877,730.24,651.77,729.96,651.554,729.747z"
	/>
<path fill="#FFFFFF" d="M654.771,735.006c-0.381-0.23-0.674-0.54-0.879-0.932c-0.205-0.392-0.308-0.823-0.308-1.296
	c0-0.466,0.103-0.895,0.308-1.285c0.206-0.392,0.499-0.701,0.879-0.932c0.38-0.229,0.82-0.344,1.318-0.344
	c0.505,0,0.948,0.115,1.329,0.344c0.38,0.23,0.673,0.539,0.879,0.926c0.206,0.39,0.308,0.82,0.308,1.291
	c0,0.473-0.102,0.904-0.308,1.296c-0.206,0.392-0.499,0.701-0.879,0.932c-0.381,0.229-0.823,0.345-1.329,0.345
	C655.591,735.351,655.152,735.234,654.771,735.006z M657.125,733.997c0.252-0.33,0.378-0.735,0.378-1.219
	c0-0.476-0.126-0.878-0.378-1.206c-0.252-0.33-0.598-0.496-1.036-0.496c-0.431,0-0.772,0.166-1.025,0.496
	c-0.252,0.328-0.379,0.73-0.379,1.206c0,0.483,0.126,0.889,0.379,1.219c0.253,0.329,0.595,0.493,1.025,0.493
	C656.527,734.49,656.873,734.326,657.125,733.997z"/>
<path fill="#FFFFFF" d="M662.796,731.643l-1.131,3.575h-1.111l-1.515-4.88h1.101l1.03,3.546l1.162-3.546h0.929l1.161,3.546
	l1.031-3.546h1.101l-1.515,4.88h-1.111L662.796,731.643z"/>
<path fill="#FFFFFF" d="M667.307,731.487c0.212-0.387,0.506-0.695,0.884-0.926c0.377-0.229,0.801-0.344,1.272-0.344
	c0.479,0,0.899,0.115,1.263,0.344c0.364,0.229,0.644,0.544,0.843,0.945c0.199,0.398,0.298,0.855,0.298,1.367v0.253h-3.767
	c0.04,0.403,0.198,0.74,0.475,1.009c0.275,0.271,0.636,0.405,1.081,0.405c0.249,0,0.5-0.046,0.752-0.142
	c0.252-0.094,0.462-0.225,0.631-0.393l0.485,0.685c-0.243,0.214-0.536,0.376-0.879,0.488c-0.343,0.112-0.71,0.171-1.101,0.171
	c-0.485,0-0.921-0.109-1.308-0.32c-0.387-0.212-0.691-0.514-0.915-0.906c-0.222-0.392-0.333-0.839-0.333-1.346
	C666.989,732.308,667.095,731.877,667.307,731.487z M668.484,731.415c-0.236,0.26-0.366,0.56-0.389,0.904h2.742
	c-0.006-0.21-0.06-0.414-0.161-0.61c-0.101-0.2-0.252-0.363-0.455-0.49c-0.202-0.128-0.455-0.193-0.758-0.193
	C669.046,731.025,668.719,731.155,668.484,731.415z"/>
<path fill="#FFFFFF" d="M672.918,730.338h1.061v0.719c0.188-0.242,0.424-0.443,0.707-0.602c0.284-0.157,0.577-0.237,0.879-0.237
	v0.98c-0.094-0.021-0.206-0.03-0.333-0.03c-0.222,0-0.459,0.067-0.711,0.201c-0.252,0.132-0.433,0.287-0.541,0.458v3.391h-1.061
	V730.338z"/>
<path fill="#FFFFFF" d="M676.438,731.487c0.212-0.387,0.507-0.695,0.884-0.926c0.377-0.229,0.801-0.344,1.273-0.344
	c0.478,0,0.899,0.115,1.262,0.344c0.364,0.229,0.646,0.544,0.844,0.945c0.198,0.398,0.298,0.855,0.298,1.367v0.253h-3.768
	c0.041,0.403,0.199,0.74,0.475,1.009c0.277,0.271,0.637,0.405,1.081,0.405c0.25,0,0.5-0.046,0.753-0.142
	c0.253-0.094,0.463-0.225,0.631-0.393l0.484,0.685c-0.242,0.214-0.535,0.376-0.878,0.488c-0.344,0.112-0.71,0.171-1.101,0.171
	c-0.485,0-0.921-0.109-1.309-0.32c-0.387-0.212-0.691-0.514-0.914-0.906c-0.222-0.392-0.333-0.839-0.333-1.346
	C676.121,732.308,676.226,731.877,676.438,731.487z M677.615,731.415c-0.236,0.26-0.365,0.56-0.389,0.904h2.743
	c-0.007-0.21-0.062-0.414-0.163-0.61c-0.101-0.2-0.252-0.363-0.454-0.49c-0.202-0.128-0.454-0.193-0.757-0.193
	C678.177,731.025,677.851,731.155,677.615,731.415z"/>
<path fill="#FFFFFF" d="M685.483,734.552c-0.188,0.247-0.418,0.444-0.691,0.585c-0.272,0.142-0.564,0.214-0.874,0.214
	c-0.418,0-0.792-0.104-1.122-0.311c-0.331-0.205-0.587-0.5-0.773-0.884c-0.185-0.386-0.277-0.842-0.277-1.368
	c0-0.52,0.093-0.973,0.277-1.361c0.186-0.388,0.442-0.686,0.773-0.896c0.33-0.209,0.704-0.313,1.122-0.313
	c0.303,0,0.591,0.069,0.864,0.207c0.272,0.138,0.506,0.336,0.701,0.592v-2.536h1.061v6.737h-1.061V734.552z M685.483,731.769
	c-0.121-0.2-0.299-0.364-0.535-0.495c-0.235-0.133-0.479-0.197-0.727-0.197c-0.417,0-0.751,0.16-1,0.479
	c-0.249,0.319-0.374,0.731-0.374,1.234c0,0.504,0.125,0.912,0.374,1.228c0.249,0.316,0.583,0.474,1,0.474
	c0.249,0,0.492-0.063,0.727-0.19c0.236-0.127,0.415-0.291,0.535-0.49V731.769z"/>
<path fill="#FFFFFF" d="M690.514,728.48h1.061v2.536c0.188-0.256,0.419-0.454,0.692-0.592s0.564-0.207,0.874-0.207
	c0.417,0,0.79,0.104,1.117,0.313c0.327,0.21,0.582,0.508,0.768,0.896c0.185,0.389,0.278,0.842,0.278,1.361
	c0,0.526-0.093,0.982-0.278,1.368c-0.186,0.384-0.441,0.679-0.768,0.884c-0.328,0.207-0.7,0.311-1.117,0.311
	c-0.309,0-0.601-0.072-0.874-0.214c-0.273-0.141-0.504-0.338-0.692-0.585v0.666h-1.061V728.48z M692.105,734.294
	c0.239,0.13,0.479,0.196,0.722,0.196c0.417,0,0.752-0.157,1.005-0.474c0.252-0.315,0.378-0.724,0.378-1.228
	c0-0.503-0.126-0.915-0.378-1.234c-0.253-0.318-0.588-0.479-1.005-0.479c-0.243,0-0.481,0.067-0.717,0.202s-0.415,0.302-0.536,0.5
	v2.031C691.69,734.002,691.866,734.163,692.105,734.294z"/>
<path fill="#FFFFFF" d="M696.736,736.339c0.175,0,0.319-0.032,0.429-0.098c0.112-0.063,0.2-0.175,0.268-0.332l0.243-0.563l-2-5.008
	h1.131l1.424,3.657l1.424-3.657h1.142l-2.354,5.759c-0.162,0.397-0.38,0.679-0.657,0.843c-0.276,0.165-0.616,0.252-1.02,0.26
	c-0.087,0-0.191-0.008-0.308-0.021c-0.118-0.011-0.214-0.026-0.288-0.045l0.162-0.875
	C696.454,736.312,696.588,736.339,696.736,736.339z"/>
<g>
	<g>
		<path fill="#FFFFFF" d="M613.988,764.119c0-0.522,0.131-1.013,0.392-1.47c0.261-0.456,0.62-0.816,1.078-1.082
			c0.458-0.263,0.95-0.394,1.477-0.394c0.522,0,1.013,0.13,1.47,0.392c0.457,0.26,0.817,0.621,1.082,1.076
			c0.264,0.457,0.396,0.95,0.396,1.478c0,0.516-0.126,0.998-0.38,1.45c-0.254,0.451-0.609,0.813-1.066,1.085
			c-0.457,0.271-0.958,0.407-1.501,0.407c-0.54,0-1.039-0.136-1.497-0.404c-0.457-0.271-0.813-0.633-1.067-1.085
			C614.116,765.12,613.988,764.637,613.988,764.119z M614.353,764.119c0,0.466,0.116,0.896,0.347,1.291
			c0.231,0.396,0.544,0.71,0.942,0.942c0.397,0.231,0.828,0.35,1.292,0.35c0.465,0,0.896-0.117,1.292-0.347
			c0.396-0.232,0.709-0.546,0.942-0.944c0.232-0.396,0.349-0.826,0.349-1.292c0-0.455-0.112-0.878-0.335-1.272
			c-0.223-0.396-0.535-0.712-0.937-0.953c-0.4-0.24-0.837-0.36-1.311-0.36c-0.459,0-0.888,0.116-1.286,0.348
			c-0.399,0.23-0.714,0.548-0.947,0.948C614.469,763.232,614.353,763.661,614.353,764.119z M617.111,762.705
			c-0.37,0-0.661,0.122-0.872,0.37c-0.21,0.247-0.315,0.593-0.315,1.036c0,0.485,0.098,0.847,0.292,1.077
			c0.195,0.232,0.483,0.35,0.864,0.35c0.22,0,0.478-0.058,0.776-0.169v0.345c-0.267,0.118-0.539,0.176-0.815,0.176
			c-0.489,0-0.865-0.148-1.13-0.449c-0.266-0.301-0.398-0.733-0.398-1.298c0-0.543,0.145-0.978,0.435-1.303
			c0.29-0.325,0.678-0.488,1.164-0.488c0.311,0,0.607,0.068,0.889,0.204l-0.144,0.324
			C617.6,762.764,617.351,762.705,617.111,762.705z"/>
		<path fill="#FFFFFF" d="M626.386,766.983H622.8v-0.346l1.524-1.589c0.428-0.445,0.729-0.784,0.901-1.02
			c0.172-0.235,0.299-0.459,0.379-0.675c0.082-0.213,0.122-0.438,0.122-0.674c0-0.341-0.112-0.62-0.337-0.834
			c-0.225-0.214-0.516-0.321-0.874-0.321c-0.478,0-0.935,0.175-1.371,0.521l-0.211-0.269c0.478-0.404,1.008-0.604,1.59-0.604
			c0.5,0,0.892,0.132,1.178,0.399c0.286,0.266,0.429,0.633,0.429,1.101c0,0.379-0.096,0.745-0.289,1.099
			c-0.191,0.354-0.542,0.79-1.052,1.311l-1.469,1.509v0.016h3.064V766.983z"/>
		<path fill="#FFFFFF" d="M631.072,764.104c0,1.006-0.154,1.75-0.46,2.233c-0.307,0.483-0.771,0.725-1.393,0.725
			c-0.598,0-1.053-0.248-1.364-0.747c-0.311-0.497-0.466-1.234-0.466-2.211c0-0.997,0.151-1.737,0.453-2.218
			c0.302-0.479,0.761-0.72,1.377-0.72c0.604,0,1.063,0.248,1.38,0.745C630.914,762.409,631.072,763.141,631.072,764.104z
			 M627.812,764.104c0,0.889,0.116,1.545,0.349,1.969c0.231,0.425,0.584,0.638,1.057,0.638c0.494,0,0.854-0.22,1.08-0.659
			c0.226-0.438,0.339-1.088,0.339-1.947c0-0.846-0.113-1.488-0.339-1.928s-0.585-0.658-1.08-0.658c-0.494,0-0.852,0.219-1.074,0.658
			S627.812,763.258,627.812,764.104z"/>
		<path fill="#FFFFFF" d="M634.19,766.983h-0.384v-4.173c0-0.379,0.016-0.771,0.047-1.18c-0.039,0.04-0.08,0.077-0.122,0.115
			c-0.041,0.036-0.445,0.353-1.21,0.952l-0.224-0.279l1.556-1.163h0.337V766.983z"/>
		<path fill="#FFFFFF" d="M637.408,766.983l2.358-5.353h-3.24v-0.375h3.707v0.286l-2.366,5.441H637.408z"/>
		<path fill="#FFFFFF" d="M647.739,766.983h-0.403l-3.394-5.086h-0.031c0.031,0.605,0.047,1.063,0.047,1.372v3.714h-0.384v-5.728
			h0.399l3.39,5.078h0.024c-0.024-0.471-0.035-0.917-0.035-1.341v-3.737h0.387V766.983z"/>
		<path fill="#FFFFFF" d="M652.787,764.849c0,0.695-0.169,1.237-0.505,1.628c-0.337,0.391-0.802,0.585-1.395,0.585
			c-0.374,0-0.703-0.09-0.987-0.27c-0.285-0.181-0.504-0.439-0.655-0.775c-0.152-0.338-0.228-0.728-0.228-1.168
			c0-0.695,0.169-1.238,0.506-1.624c0.337-0.389,0.799-0.583,1.387-0.583c0.585,0,1.044,0.198,1.378,0.59
			C652.621,763.625,652.787,764.164,652.787,764.849z M649.425,764.849c0,0.585,0.128,1.041,0.385,1.368
			c0.258,0.329,0.622,0.493,1.092,0.493s0.834-0.164,1.091-0.493c0.257-0.327,0.385-0.783,0.385-1.368
			c0-0.588-0.129-1.044-0.389-1.367c-0.26-0.324-0.625-0.487-1.095-0.487c-0.471,0-0.833,0.163-1.088,0.485
			C649.552,763.802,649.425,764.257,649.425,764.849z"/>
		<path fill="#FFFFFF" d="M654.898,766.983l-1.646-4.26h0.4l1.101,2.897c0.146,0.369,0.256,0.693,0.329,0.971h0.023
			c0.107-0.355,0.218-0.683,0.33-0.979l1.101-2.889h0.401l-1.646,4.26H654.898z"/>
		<path fill="#FFFFFF" d="M661.172,764.849c0,0.695-0.168,1.237-0.506,1.628c-0.336,0.391-0.802,0.585-1.394,0.585
			c-0.374,0-0.703-0.09-0.988-0.27c-0.285-0.181-0.502-0.439-0.654-0.775c-0.152-0.338-0.228-0.728-0.228-1.168
			c0-0.695,0.168-1.238,0.505-1.624c0.337-0.389,0.799-0.583,1.387-0.583c0.585,0,1.044,0.198,1.377,0.59
			C661.004,763.625,661.172,764.164,661.172,764.849z M657.81,764.849c0,0.585,0.128,1.041,0.386,1.368
			c0.257,0.329,0.621,0.493,1.091,0.493c0.47,0,0.834-0.164,1.091-0.493c0.257-0.327,0.386-0.783,0.386-1.368
			c0-0.588-0.129-1.044-0.39-1.367c-0.26-0.324-0.625-0.487-1.095-0.487c-0.47,0-0.833,0.163-1.087,0.485
			C657.937,763.802,657.81,764.257,657.81,764.849z"/>
		<path fill="#FFFFFF" d="M665.897,762.901c0,0.554-0.188,0.978-0.564,1.271c-0.376,0.297-0.908,0.444-1.599,0.444h-0.886v2.366
			h-0.399v-5.728h1.403C665.215,761.256,665.897,761.804,665.897,762.901z M662.848,764.271h0.788c0.645,0,1.111-0.105,1.398-0.318
			c0.288-0.214,0.432-0.558,0.432-1.036c0-0.441-0.136-0.771-0.407-0.981c-0.272-0.214-0.692-0.319-1.262-0.319h-0.949V764.271z"/>
		<path fill="#FFFFFF" d="M669.631,766.983l-0.098-0.673h-0.031c-0.214,0.273-0.435,0.468-0.661,0.581
			c-0.226,0.113-0.493,0.17-0.801,0.17c-0.418,0-0.743-0.106-0.976-0.32c-0.232-0.214-0.349-0.512-0.349-0.89
			c0-0.416,0.173-0.738,0.519-0.969c0.346-0.229,0.848-0.351,1.502-0.363l0.811-0.024v-0.281c0-0.405-0.082-0.711-0.246-0.918
			c-0.165-0.206-0.431-0.31-0.796-0.31c-0.394,0-0.804,0.11-1.227,0.329l-0.145-0.337c0.467-0.219,0.929-0.329,1.387-0.329
			c0.467,0,0.816,0.123,1.048,0.365c0.23,0.243,0.347,0.622,0.347,1.136v2.833H669.631z M668.064,766.71
			c0.455,0,0.813-0.13,1.075-0.39c0.263-0.262,0.395-0.623,0.395-1.084v-0.42l-0.745,0.032c-0.598,0.028-1.025,0.121-1.279,0.279
			c-0.255,0.158-0.382,0.403-0.382,0.739c0,0.266,0.082,0.474,0.245,0.621C667.536,766.635,667.767,766.71,668.064,766.71z"/>
		<path fill="#FFFFFF" d="M670.583,762.724h0.399l0.901,2.392c0.274,0.733,0.448,1.229,0.522,1.483h0.022
			c0.11-0.337,0.289-0.839,0.537-1.508l0.902-2.367h0.398l-1.908,4.949c-0.154,0.402-0.283,0.674-0.388,0.815
			c-0.104,0.141-0.227,0.248-0.366,0.317s-0.309,0.105-0.507,0.105c-0.149,0-0.314-0.027-0.498-0.082v-0.337
			c0.151,0.042,0.315,0.063,0.489,0.063c0.133,0,0.251-0.033,0.353-0.095c0.102-0.063,0.194-0.16,0.276-0.292
			c0.082-0.132,0.177-0.342,0.286-0.627c0.109-0.286,0.178-0.472,0.21-0.559L670.583,762.724z"/>
		<path fill="#FFFFFF" d="M680.3,766.983v-2.794c0-0.415-0.081-0.718-0.243-0.909c-0.162-0.19-0.41-0.286-0.745-0.286
			c-0.436,0-0.759,0.12-0.967,0.36c-0.209,0.24-0.313,0.619-0.313,1.134v2.495h-0.396v-2.91c0-0.72-0.33-1.079-0.988-1.079
			c-0.447,0-0.772,0.132-0.976,0.391c-0.203,0.26-0.305,0.676-0.305,1.247v2.352h-0.389v-4.26h0.322l0.082,0.585h0.024
			c0.117-0.212,0.284-0.375,0.501-0.491c0.216-0.117,0.455-0.176,0.716-0.176c0.671,0,1.103,0.253,1.293,0.757h0.016
			c0.138-0.242,0.324-0.429,0.559-0.561c0.233-0.131,0.5-0.196,0.797-0.196c0.464,0,0.813,0.125,1.046,0.373
			c0.231,0.248,0.348,0.642,0.348,1.183v2.786H680.3z"/>
		<path fill="#FFFFFF" d="M683.784,767.062c-0.619,0-1.102-0.191-1.448-0.571c-0.346-0.382-0.519-0.915-0.519-1.603
			c0-0.679,0.167-1.224,0.501-1.633c0.335-0.408,0.785-0.613,1.352-0.613c0.502,0,0.898,0.177,1.188,0.524
			c0.29,0.352,0.435,0.827,0.435,1.428v0.313h-3.068c0.005,0.585,0.142,1.03,0.41,1.339c0.269,0.31,0.651,0.464,1.15,0.464
			c0.243,0,0.456-0.017,0.641-0.051c0.184-0.035,0.417-0.108,0.7-0.22v0.353c-0.24,0.104-0.463,0.175-0.667,0.213
			S684.029,767.062,683.784,767.062z M683.669,762.986c-0.41,0-0.739,0.136-0.986,0.406c-0.249,0.27-0.394,0.66-0.435,1.17h2.632
			c0-0.495-0.107-0.879-0.321-1.158C684.345,763.126,684.048,762.986,683.669,762.986z"/>
		<path fill="#FFFFFF" d="M689.438,766.983v-2.762c0-0.429-0.09-0.74-0.271-0.936c-0.181-0.194-0.459-0.292-0.838-0.292
			c-0.51,0-0.883,0.129-1.119,0.387c-0.236,0.257-0.354,0.676-0.354,1.251v2.352h-0.389v-4.26h0.33l0.075,0.585h0.023
			c0.277-0.445,0.77-0.667,1.477-0.667c0.967,0,1.451,0.52,1.451,1.556v2.786H689.438z"/>
		<path fill="#FFFFFF" d="M692.325,766.717c0.245,0,0.459-0.021,0.643-0.063v0.313c-0.188,0.063-0.405,0.094-0.651,0.094
			c-0.376,0-0.654-0.1-0.833-0.301s-0.268-0.518-0.268-0.949v-2.751h-0.631v-0.226l0.631-0.178l0.196-0.963h0.2v1.029h1.25v0.337
			h-1.25v2.697c0,0.327,0.057,0.567,0.173,0.723C691.899,766.638,692.08,766.717,692.325,766.717z"/>
		<path fill="#FFFFFF" d="M696.071,766.983v-5.728h0.399v5.728H696.071z"/>
		<path fill="#FFFFFF" d="M700.965,766.983v-2.762c0-0.429-0.09-0.74-0.271-0.936c-0.18-0.194-0.459-0.292-0.838-0.292
			c-0.51,0-0.883,0.129-1.119,0.387c-0.237,0.257-0.355,0.676-0.355,1.251v2.352h-0.388v-4.26h0.329l0.075,0.585h0.024
			c0.276-0.445,0.769-0.667,1.477-0.667c0.966,0,1.45,0.52,1.45,1.556v2.786H700.965z"/>
		<path fill="#FFFFFF" d="M704.428,767.062c-0.608,0-1.085-0.191-1.43-0.575c-0.344-0.385-0.517-0.92-0.517-1.606
			c0-0.707,0.179-1.255,0.536-1.648c0.358-0.392,0.848-0.59,1.47-0.59c0.369,0,0.721,0.064,1.058,0.193l-0.106,0.344
			c-0.368-0.123-0.688-0.185-0.959-0.185c-0.522,0-0.918,0.163-1.187,0.485c-0.27,0.322-0.404,0.785-0.404,1.393
			c0,0.574,0.135,1.025,0.404,1.35c0.268,0.324,0.645,0.488,1.128,0.488c0.386,0,0.745-0.069,1.077-0.209v0.361
			C705.226,766.996,704.87,767.062,704.428,767.062z"/>
		<path fill="#FFFFFF" d="M706.462,766.679c0-0.258,0.104-0.386,0.314-0.386c0.214,0,0.32,0.128,0.32,0.386
			c0,0.255-0.106,0.383-0.32,0.383C706.566,767.062,706.462,766.934,706.462,766.679z"/>
		<path fill="#FFFFFF" d="M713.39,764.962h-2.328l-0.799,2.021h-0.443l2.304-5.752h0.255l2.257,5.752h-0.451L713.39,764.962z
			 M711.207,764.602h2.049l-0.78-2.065c-0.064-0.161-0.143-0.387-0.234-0.674c-0.071,0.251-0.148,0.479-0.231,0.682L711.207,764.602
			z"/>
		<path fill="#FFFFFF" d="M715.737,766.983h-0.388v-6.096h0.388V766.983z"/>
		<path fill="#FFFFFF" d="M717.55,766.983h-0.387v-6.096h0.387V766.983z"/>
		<path fill="#FFFFFF" d="M722.739,762.642c0.179,0,0.373,0.02,0.579,0.057l-0.075,0.371c-0.177-0.045-0.361-0.066-0.552-0.066
			c-0.363,0-0.661,0.154-0.894,0.462c-0.232,0.309-0.349,0.697-0.349,1.167v2.352h-0.388v-4.26h0.33l0.04,0.771h0.027
			c0.175-0.315,0.362-0.534,0.561-0.661C722.216,762.705,722.456,762.642,722.739,762.642z"/>
		<path fill="#FFFFFF" d="M724.129,761.542c0-0.252,0.083-0.376,0.247-0.376c0.082,0,0.145,0.031,0.19,0.097
			c0.045,0.064,0.069,0.159,0.069,0.279c0,0.117-0.023,0.209-0.069,0.277c-0.046,0.068-0.109,0.102-0.19,0.102
			C724.212,761.921,724.129,761.794,724.129,761.542z M724.572,766.983h-0.388v-4.26h0.388V766.983z"/>
		<path fill="#FFFFFF" d="M729.321,762.724v0.271l-0.882,0.056c0.235,0.292,0.353,0.614,0.353,0.964
			c0,0.409-0.136,0.742-0.409,0.997c-0.273,0.254-0.64,0.381-1.1,0.381c-0.193,0-0.329-0.007-0.408-0.022
			c-0.154,0.081-0.271,0.177-0.352,0.287c-0.081,0.108-0.121,0.226-0.121,0.348c0,0.136,0.052,0.234,0.155,0.297
			c0.103,0.063,0.276,0.095,0.519,0.095h0.745c0.462,0,0.816,0.093,1.062,0.28s0.369,0.464,0.369,0.83
			c0,0.449-0.183,0.795-0.547,1.039c-0.364,0.244-0.883,0.366-1.558,0.366c-0.535,0-0.949-0.104-1.244-0.31
			c-0.293-0.207-0.44-0.493-0.44-0.862c0-0.292,0.091-0.534,0.272-0.729c0.182-0.193,0.428-0.325,0.739-0.396
			c-0.128-0.055-0.23-0.132-0.307-0.233c-0.078-0.1-0.116-0.215-0.116-0.347c0-0.285,0.182-0.534,0.544-0.752
			c-0.248-0.103-0.441-0.262-0.58-0.479c-0.138-0.219-0.208-0.469-0.208-0.751c0-0.427,0.136-0.768,0.406-1.024
			c0.271-0.258,0.635-0.387,1.095-0.387c0.28,0,0.497,0.027,0.65,0.082H729.321z M725.874,767.704c0,0.585,0.435,0.878,1.304,0.878
			c1.118,0,1.677-0.355,1.677-1.069c0-0.256-0.087-0.441-0.263-0.557c-0.174-0.115-0.458-0.172-0.85-0.172h-0.698
			C726.264,766.784,725.874,767.091,725.874,767.704z M726.198,764.053c0,0.33,0.1,0.585,0.3,0.766
			c0.199,0.182,0.466,0.272,0.801,0.272c0.355,0,0.627-0.091,0.816-0.271c0.19-0.181,0.285-0.44,0.285-0.784
			c0-0.362-0.098-0.635-0.291-0.817c-0.195-0.18-0.468-0.271-0.818-0.271c-0.34,0-0.607,0.098-0.802,0.293
			C726.295,763.435,726.198,763.705,726.198,764.053z"/>
		<path fill="#FFFFFF" d="M733.165,766.983v-2.762c0-0.429-0.09-0.74-0.27-0.936c-0.181-0.194-0.461-0.292-0.839-0.292
			c-0.51,0-0.882,0.129-1.119,0.387c-0.235,0.257-0.354,0.676-0.354,1.251v2.352h-0.388v-6.096h0.388v1.938l-0.02,0.544h0.027
			c0.16-0.256,0.361-0.44,0.604-0.555c0.243-0.115,0.544-0.174,0.905-0.174c0.966,0,1.45,0.52,1.45,1.556v2.786H733.165z"/>
		<path fill="#FFFFFF" d="M736.052,766.717c0.246,0,0.46-0.021,0.643-0.063v0.313c-0.188,0.063-0.405,0.094-0.65,0.094
			c-0.376,0-0.654-0.1-0.833-0.301s-0.268-0.518-0.268-0.949v-2.751h-0.631v-0.226l0.631-0.178l0.196-0.963h0.199v1.029h1.25v0.337
			h-1.25v2.697c0,0.327,0.058,0.567,0.172,0.723C735.626,766.638,735.807,766.717,736.052,766.717z"/>
		<path fill="#FFFFFF" d="M740.257,765.876c0,0.379-0.145,0.672-0.435,0.879c-0.291,0.204-0.701,0.307-1.234,0.307
			c-0.569,0-1.021-0.088-1.355-0.262v-0.42c0.428,0.215,0.88,0.322,1.355,0.322c0.421,0,0.74-0.071,0.958-0.21
			c0.218-0.141,0.327-0.325,0.327-0.56c0-0.214-0.087-0.394-0.261-0.541c-0.174-0.146-0.459-0.289-0.856-0.43
			c-0.426-0.153-0.725-0.286-0.897-0.398c-0.172-0.111-0.303-0.235-0.39-0.376c-0.087-0.139-0.132-0.31-0.132-0.512
			c0-0.316,0.134-0.569,0.402-0.755c0.267-0.186,0.642-0.279,1.123-0.279c0.459,0,0.895,0.088,1.309,0.26l-0.145,0.352
			c-0.419-0.172-0.806-0.259-1.164-0.259c-0.348,0-0.624,0.059-0.827,0.172c-0.204,0.115-0.306,0.275-0.306,0.479
			c0,0.222,0.079,0.4,0.237,0.534c0.158,0.132,0.467,0.28,0.927,0.446c0.383,0.138,0.664,0.263,0.838,0.374
			c0.175,0.111,0.306,0.237,0.394,0.379C740.213,765.518,740.257,765.684,740.257,765.876z"/>
		<path fill="#FFFFFF" d="M745.115,762.642c0.181,0,0.374,0.02,0.58,0.057l-0.074,0.371c-0.178-0.045-0.362-0.066-0.552-0.066
			c-0.363,0-0.661,0.154-0.894,0.462c-0.233,0.309-0.349,0.697-0.349,1.167v2.352h-0.388v-4.26h0.33l0.04,0.771h0.027
			c0.174-0.315,0.361-0.534,0.56-0.661C744.593,762.705,744.833,762.642,745.115,762.642z"/>
		<path fill="#FFFFFF" d="M748.281,767.062c-0.619,0-1.102-0.191-1.448-0.571c-0.346-0.382-0.52-0.915-0.52-1.603
			c0-0.679,0.167-1.224,0.502-1.633c0.334-0.408,0.785-0.613,1.352-0.613c0.501,0,0.897,0.177,1.187,0.524
			c0.29,0.352,0.435,0.827,0.435,1.428v0.313h-3.068c0.005,0.585,0.141,1.03,0.41,1.339c0.268,0.31,0.651,0.464,1.15,0.464
			c0.243,0,0.457-0.017,0.641-0.051c0.184-0.035,0.417-0.108,0.7-0.22v0.353c-0.241,0.104-0.463,0.175-0.667,0.213
			C748.751,767.043,748.526,767.062,748.281,767.062z M748.168,762.986c-0.411,0-0.739,0.136-0.988,0.406
			c-0.248,0.27-0.393,0.66-0.435,1.17h2.633c0-0.495-0.107-0.879-0.321-1.158C748.842,763.126,748.546,762.986,748.168,762.986z"/>
		<path fill="#FFFFFF" d="M753.606,765.876c0,0.379-0.145,0.672-0.435,0.879c-0.29,0.204-0.701,0.307-1.234,0.307
			c-0.569,0-1.021-0.088-1.356-0.262v-0.42c0.429,0.215,0.881,0.322,1.356,0.322c0.42,0,0.74-0.071,0.959-0.21
			c0.217-0.141,0.327-0.325,0.327-0.56c0-0.214-0.087-0.394-0.261-0.541c-0.174-0.146-0.459-0.289-0.856-0.43
			c-0.426-0.153-0.725-0.286-0.898-0.398c-0.172-0.111-0.302-0.235-0.389-0.376c-0.088-0.139-0.132-0.31-0.132-0.512
			c0-0.316,0.134-0.569,0.402-0.755c0.268-0.186,0.642-0.279,1.122-0.279c0.459,0,0.896,0.088,1.309,0.26l-0.146,0.352
			c-0.418-0.172-0.806-0.259-1.164-0.259c-0.347,0-0.623,0.059-0.827,0.172c-0.204,0.115-0.305,0.275-0.305,0.479
			c0,0.222,0.078,0.4,0.237,0.534c0.158,0.132,0.466,0.28,0.927,0.446c0.383,0.138,0.663,0.263,0.838,0.374
			c0.175,0.111,0.306,0.237,0.394,0.379C753.562,765.518,753.606,765.684,753.606,765.876z"/>
		<path fill="#FFFFFF" d="M756.423,767.062c-0.619,0-1.102-0.191-1.447-0.571c-0.347-0.382-0.52-0.915-0.52-1.603
			c0-0.679,0.167-1.224,0.501-1.633c0.335-0.408,0.785-0.613,1.353-0.613c0.501,0,0.897,0.177,1.187,0.524
			c0.29,0.352,0.435,0.827,0.435,1.428v0.313h-3.068c0.005,0.585,0.142,1.03,0.41,1.339c0.267,0.31,0.65,0.464,1.149,0.464
			c0.244,0,0.456-0.017,0.641-0.051c0.185-0.035,0.417-0.108,0.7-0.22v0.353c-0.241,0.104-0.462,0.175-0.667,0.213
			C756.894,767.043,756.669,767.062,756.423,767.062z M756.31,762.986c-0.41,0-0.739,0.136-0.988,0.406
			c-0.248,0.27-0.394,0.66-0.435,1.17h2.633c0-0.495-0.107-0.879-0.321-1.158C756.985,763.126,756.688,762.986,756.31,762.986z"/>
		<path fill="#FFFFFF" d="M760.784,762.642c0.18,0,0.374,0.02,0.58,0.057l-0.075,0.371c-0.177-0.045-0.361-0.066-0.552-0.066
			c-0.363,0-0.661,0.154-0.894,0.462c-0.232,0.309-0.349,0.697-0.349,1.167v2.352h-0.387v-4.26h0.329l0.04,0.771h0.027
			c0.175-0.315,0.362-0.534,0.56-0.661C760.261,762.705,760.502,762.642,760.784,762.642z"/>
		<path fill="#FFFFFF" d="M763.163,766.983l-1.646-4.26h0.4l1.101,2.897c0.146,0.369,0.256,0.693,0.33,0.971h0.023
			c0.107-0.355,0.217-0.683,0.329-0.979l1.102-2.889h0.399l-1.646,4.26H763.163z"/>
		<path fill="#FFFFFF" d="M767.633,767.062c-0.619,0-1.102-0.191-1.448-0.571c-0.346-0.382-0.519-0.915-0.519-1.603
			c0-0.679,0.167-1.224,0.501-1.633c0.335-0.408,0.785-0.613,1.353-0.613c0.5,0,0.897,0.177,1.187,0.524
			c0.29,0.352,0.435,0.827,0.435,1.428v0.313h-3.068c0.005,0.585,0.142,1.03,0.41,1.339c0.267,0.31,0.65,0.464,1.149,0.464
			c0.243,0,0.456-0.017,0.641-0.051c0.185-0.035,0.417-0.108,0.7-0.22v0.353c-0.241,0.104-0.462,0.175-0.667,0.213
			C768.104,767.043,767.879,767.062,767.633,767.062z M767.52,762.986c-0.41,0-0.739,0.136-0.988,0.406
			c-0.248,0.27-0.394,0.66-0.435,1.17h2.633c0-0.495-0.107-0.879-0.321-1.158C768.195,763.126,767.898,762.986,767.52,762.986z"/>
		<path fill="#FFFFFF" d="M771.876,762.642c0.309,0,0.575,0.057,0.8,0.169c0.225,0.113,0.426,0.304,0.603,0.575h0.024
			c-0.016-0.327-0.024-0.65-0.024-0.967v-1.531h0.384v6.096h-0.255l-0.098-0.649h-0.032c-0.324,0.484-0.789,0.728-1.395,0.728
			c-0.587,0-1.037-0.183-1.348-0.548c-0.311-0.366-0.466-0.899-0.466-1.6c0-0.735,0.154-1.298,0.462-1.688
			C770.841,762.837,771.289,762.642,771.876,762.642z M771.876,762.994c-0.465,0-0.814,0.164-1.048,0.489
			c-0.233,0.327-0.351,0.802-0.351,1.424c0,1.206,0.469,1.81,1.407,1.81c0.481,0,0.833-0.14,1.058-0.418
			c0.225-0.28,0.336-0.74,0.336-1.385v-0.065c0-0.659-0.11-1.132-0.331-1.42C772.727,763.141,772.37,762.994,771.876,762.994z"/>
		<path fill="#FFFFFF" d="M775.016,766.679c0-0.258,0.104-0.386,0.313-0.386c0.214,0,0.322,0.128,0.322,0.386
			c0,0.255-0.108,0.383-0.322,0.383C775.12,767.062,775.016,766.934,775.016,766.679z"/>
	</g>
</g>
</svg>
